# xmcd CD database file
# Copyright (C) 1993-1998 Ti Kan
#
# Track frame offsets:
# 	182
# 	13245
# 	24615
# 	38067
# 	50630
# 	65217
# 	76980
# 	90217
# 	103497
# 	116007
# 	128552
# 	144137
# 	161515
# 	178880
#
# Disc length: 2651 seconds
#
# Revision: 1
# Processed by: cddbd v1.4b41PL1 Copyright (c) Steve Scherf et al.
# Submitted via: DiscPlay 3.4.1
#
DISCID=bb0a590e
DTITLE=Percy Sledge - The Magic Collection
DYEAR=1900
DGENRE=
TTITLE0=When A Man Loves A Woman
TTITLE1=Sittin' On The Dock Of The Bay
TTITLE2=My Special Prayer
TTITLE3=Behind Closed Doors
TTITLE4=Warm And Tender Love
TTITLE5=Tell It Like It Is
TTITLE6=Take Time To Know Her
TTITLE7=I've Been Loving You To Long
TTITLE8=It Tears Me Up
TTITLE9=Cover Me
TTITLE10=Bring It On Home To Me
TTITLE11=Try A Little Tenderness
TTITLE12=If Loving You Is Wrong
TTITLE13=You Send Me
EXTD=
EXTT0=
EXTT1=
EXTT2=
EXTT3=
EXTT4=
EXTT5=
EXTT6=
EXTT7=
EXTT8=
EXTT9=
EXTT10=
EXTT11=
EXTT12=
EXTT13=
PLAYORDER=
